<svg width="28" height="28" viewBox="0 0 28 28" fill="none" xmlns="http://www.w3.org/2000/svg">
<path d="M13.9688 5.67212C16.7674 5.67212 19.0369 7.94093 19.0371 10.7395C19.0371 13.5383 16.7676 15.8079 13.9688 15.8079C11.1702 15.8076 8.90137 13.5382 8.90137 10.7395C8.90162 7.94108 11.1703 5.67237 13.9688 5.67212Z" stroke="#0866FF" stroke-width="1.6"/>
<path d="M13.9684 18.7112C16.5733 18.7112 18.5418 18.9295 19.9889 19.5588C21.5034 20.2174 22.419 21.3172 22.9156 22.9475C23.0193 23.2878 22.7647 23.6308 22.4098 23.6311H5.52893C5.17268 23.631 4.91693 23.2862 5.02112 22.9446C5.51839 21.3145 6.43515 20.2148 7.95081 19.5569C9.39765 18.9289 11.3655 18.7112 13.9684 18.7112Z" stroke="#0866FF" stroke-width="1.6"/>
</svg>
