<svg width="23" height="24" viewBox="0 0 23 24" fill="none" xmlns="http://www.w3.org/2000/svg">
<path d="M6.41064 14.0559C6.41064 14.4149 6.70164 14.7059 7.06067 14.7059H16.4914C16.8505 14.7059 17.1414 14.4149 17.1414 14.0559C17.1414 13.6969 16.8505 13.4059 16.4914 13.4059H7.06067C6.70164 13.4059 6.41064 13.6969 6.41064 14.0559Z" fill="white"/>
<path d="M6.41064 9.9223C6.41064 10.2813 6.70164 10.5723 7.06067 10.5723H16.4914C16.8505 10.5723 17.1414 10.2813 17.1414 9.9223C17.1414 9.56327 16.8505 9.27228 16.4914 9.27228H7.06067C6.70164 9.27228 6.41064 9.56327 6.41064 9.9223Z" fill="white"/>
<path d="M7.06067 18.8428H16.4914C16.8505 18.8428 17.1414 18.5518 17.1414 18.1927C17.1414 17.8337 16.8505 17.5427 16.4914 17.5427H7.06067C6.70164 17.5427 6.41064 17.8337 6.41064 18.1927C6.41064 18.5518 6.70164 18.8428 7.06067 18.8428Z" fill="white"/>
<path d="M7.06067 6.43658H10.2632C10.6222 6.43658 10.9132 6.14559 10.9132 5.78656C10.9132 5.42753 10.6222 5.13654 10.2632 5.13654H7.06067C6.70164 5.13654 6.41064 5.42753 6.41064 5.78656C6.41064 6.14559 6.70164 6.43658 7.06067 6.43658Z" fill="white"/>
<path d="M20.2 5.8248L15.7516 1.14408C15.6296 1.02217 14.9914 0.999634 14.8191 0.999634H4.12805C3.76902 0.999634 3.47803 1.29063 3.47803 1.64966V22.4075C3.47803 22.7665 3.76902 23.0575 4.12805 23.0575H19.7286C20.0876 23.0575 20.3786 22.7665 20.3786 22.4075V6.55928C20.3786 6.38688 20.322 5.94671 20.2 5.8248ZM15.373 2.73648L18.7308 6.21016H15.373L15.373 2.73648ZM18.8214 21.6789H5.03524V2.37825H13.9932L13.9932 6.05371C13.9932 6.78911 14.5678 7.36805 15.373 7.36805H18.8214L18.8214 21.6789Z" fill="white"/>
</svg>
