<svg width="21" height="20" viewBox="0 0 21 20" fill="none" xmlns="http://www.w3.org/2000/svg">
<path fill-rule="evenodd" clip-rule="evenodd" d="M20.3722 2.97787C20.0845 0.877095 17.7374 0.203812 16.2029 1.30309C14.9879 2.17344 13.4246 3.21932 11.8839 4.04373C10.3 4.89129 8.8965 5.41713 7.95179 5.41713H3.36845C1.84967 5.41713 0.618454 6.64834 0.618454 8.16713V10.9172C0.618454 12.3686 1.743 13.5575 3.16839 13.66L2.79679 15.5179C2.51856 16.9091 3.3443 18.2836 4.70318 18.6913L5.81498 19.0248C7.33668 19.4813 8.92749 18.5572 9.2848 17.0091L9.94783 14.136C10.5441 14.3659 11.1971 14.673 11.8839 15.0405C13.4246 15.865 14.9879 16.9109 16.2029 17.7812C17.7374 18.8804 20.0845 18.2071 20.3722 16.1064C20.5874 14.5341 20.7851 12.331 20.7851 9.54215C20.7851 6.75328 20.5874 4.55012 20.3722 2.97787ZM17.2705 2.79346C17.5576 2.58781 17.8745 2.56863 18.1138 2.65797C18.3409 2.74277 18.5147 2.92715 18.5558 3.22658C18.7603 4.7201 18.9518 6.84011 18.9518 9.54215C18.9518 12.2441 18.7603 14.3642 18.5558 15.8577C18.5147 16.1571 18.3409 16.3415 18.1138 16.4263C17.8745 16.5156 17.5576 16.4964 17.2705 16.2908C16.0252 15.3987 14.3892 14.3019 12.7489 13.4241C11.1519 12.5695 9.39315 11.8338 7.95179 11.8338H3.36845C2.8622 11.8338 2.45179 11.4234 2.45179 10.9172V8.16713C2.45179 7.66087 2.8622 7.25047 3.36845 7.25047H7.95179C9.39315 7.25047 11.1519 6.51477 12.7489 5.66018C14.3892 4.78245 16.0252 3.68556 17.2705 2.79346ZM8.17245 13.676C8.09638 13.6701 8.02278 13.6672 7.95179 13.6672H5.03659L4.59452 15.8775C4.50178 16.3412 4.77703 16.7994 5.22999 16.9353L6.34178 17.2688C6.84902 17.421 7.3793 17.1129 7.49838 16.5969L8.17245 13.676Z" fill="white"/>
</svg>
